<svg xmlns="http://www.w3.org/2000/svg" xmlns:xlink="http://www.w3.org/1999/xlink" width="178" height="48" viewBox="0 0 178 48"><defs><path id="k5mna" d="M195.47 41.33h9.764v8.769l5.405-8.769h10.706l-8.299 11.552 8.544 12.807H210.36l-5.127-9.258v9.258h-9.764V41.33z"/><path id="k5mnb" d="M193.007 64.922c-1.535.797-3.627 1.495-6.556 1.495-7.951 0-13.601-5.114-13.601-12.908 0-8.838 7.254-12.909 13.461-12.909 1.988 0 4.742.487 6.696 1.843v8.527c-1.5-1.844-3.697-2.576-5.404-2.576-3.628 0-5.372 2.401-5.372 5.358 0 3.096 2.267 4.87 5.336 4.87 2.161 0 4.045-.973 5.44-2.224z"/><path id="k5mnc" d="M159.764 59.684h1.187c.906 0 2.441-.141 2.441-1.846 0-1.633-1.5-1.808-2.441-1.808h-1.187zM150 41.18h13.775c7.01 0 7.743 4.317 7.743 6.194 0 2.749-2.233 4.489-4.256 5.081v.07c3.139.52 5.406 2.922 5.406 6.228 0 2.469-1.464 6.783-8.23 6.783H150zm9.764 9.263h.908c1.708 0 2.162-.872 2.162-1.71 0-.836-.454-1.708-2.162-1.708h-.908z"/><path id="k5mnd" d="M278.654 44.43l-2.78.11-.26-.67-2.68-.185-.017-.486-2.877-.039.477 1.008 1.283.144-.16-.33 1.163.764 1.93.421 1.281.045 3.236-.42z"/><path id="k5mne" d="M271.555 42.068l-1.316-.172s.035-.446-.476-.694c-.514-.247-.4-.019-.4-.019l-.5-.358-.92-.154-.077-.673-1.193-.055.029-.333-.937-.113-.393-.345.123-.384-.233-.346-1.117-.516-.94-.363-.618-.692-.732-.624-.95-.904-2.365-.806-2.24-1.61-.908-.376-.964-.462-2.04-1.071-3.005-1.635-6.646-3.142-1.895-.821c-1.076-.456-1.249-.696-1.273-.832-.974-.221-1.297-.387-1.807-.884-.519.021-1.664-.622-1.98-.924 0-.015-1.956-.571-2.082-.682-.005-.114-5.082-1.862-5.705-2.007-.442-.035-1.67-.258-1.84-.335-.204.002-.987-.235-1.301-.268-1.057-.119-2.064-.28-3.154-.294-.777-.011-1.22-.002-1.903-.164-.242.147-1.83-.13-2.4.278-.637.024-2.09.339-2.492.529-.87.032-2.35.962-2.848 1.2-.25.117-.514.24-.777.365 1.59.544 3.39 1.19 3.393 1.258.126.111 2.082.666 2.084.681.314.302 1.463.945 1.978.927.51.498.833.66 1.806.882.027.138.2.377 1.275.834l1.894.818 6.645 3.145 3.007 1.635 2.038 1.07.964.46.91.378.744.534 1.465.558 3.303 1.046 3.99 1.515 1.487.498 1.5.45.704-.126.777.259.863.752.88-.282.595.1.47.602.312.36.75.216.744.094.883-.157 1.04.082.362.605 1.451.246 1.039.076 1.04.08.799.361.729.773 1.043.205 2.706.384 2.442-.285 1.593.075z"/><path id="k5mnf" d="M249.64 45.92l2.877.04.02.485 2.678.184.258.668 2.784-.11.594.365-3.232.42-1.282-.045-1.932-.42-1.164-.764.158.33-1.28-.145z"/><path id="k5mng" d="M249.946 44.776s.036-.443-.478-.692c-.51-.249-.397-.02-.397-.02l-.5-.356-.92-.155-.076-.675-1.194-.057.029-.333-.938-.111-.393-.343.127-.384-.238-.347-1.115-.517-.94-.362-.62-.69-.733-.627-.946-.901-2.366-.807-2.242-1.61-.91-.376-.963-.464-2.038-1.071-3.006-1.633-6.646-3.144-1.896-.821c-1.075-.456-1.248-.696-1.273-.832-.974-.222-1.298-.386-1.806-.884-.517.021-1.664-.622-1.978-.925 0-.014-1.956-.572-2.084-.681-.004-.113-5.08-1.862-5.704-2.009-.443-.034-1.67-.258-1.84-.334-.206.001-.985-.236-1.302-.269-1.057-.118-2.067-.282-3.154-.292-.779-.012-1.22-.003-1.903-.164-.242.147-1.83-.132-2.4.276-.635.027-2.09.34-2.492.53-.868.034-2.35.963-2.848 1.2-.437.207-.936.417-1.344.664-.193.15-2.975 1.488-3.16 1.656.044.095-2.72 1.688-2.98 1.928-.117.121-.852.415-1.037.585-.197.175-.93.822-1.178.94-.112.225-.815.473-.928.698-.168.228-1.007.619-1.142.774-.019.018-.485.39-.857.685l-.468.6c-.18.068-.922.485-1.114.626.018.427.051 1.107-.645.978-.018-.014-.797.483-.816.469.1-.006-.429.752-.868 1.287-.258.309-1.455.73-1.686 1.049-.477.649-1.093 1.245-1.57 1.878v.049l.057-.001c.005.085.462.07.528.247.092.248-.19.471-.26.695.02 0 .039 0 .057-.002l.001.051c.367-.016.731-.388 1.027-.544l.744-.282c.44-.252.88-.507 1.319-.761 3.29-1.738 6.579-3.48 9.871-5.217 1.577-.822 2.828-1.594 4.567-2.529.415-.222 1.998-1.257 3.192-1.333 1.512-.1 3.33.276 3.816.478.464.159 1.61.725 2.184.858.179.065.507.297.586.293.056.078 1.143.244 1.714.445.197.117.392.23.588.344.944.267 3.294.807 4.145 1.062.721.213 1.15.607 1.51.684.495.334.593.165 1.203.448.91.093 1.47.41 1.5.437.283.114.471.229.755.342.236.031.689.367.866.456.212.039 1.692.481 1.842.553.244-.022 1.294.42 1.425.53.298.135.632.208.968.277l3.02 1.148 3.304 1.048 3.984 1.514 1.49.495 1.5.451.703-.127.78.259.86.753.878-.282.596.102.47.6.31.36.75.219.746.095.882-.161 1.04.083.366.606 1.448.244 1.04.078 1.039.078.8.362.727.772 1.045.206 2.703.384 2.443-.287 1.592.075.569-.418z"/><path id="k5mnh" d="M229.73 64.698c-.47.239-1.09.445-1.935.445-1.373 0-2.203-.457-2.861-1.061-.902-.843-1.254-1.788-1.254-2.904 0-1.38.586-2.372 1.254-2.974.785-.719 1.759-1.004 2.874-1.004.55 0 1.207.093 1.922.468V59.4a2.552 2.552 0 0 0-1.887-.853c-1.571 0-2.592 1.253-2.592 2.655 0 1.685 1.337 2.597 2.65 2.597.727 0 1.372-.306 1.829-.833z"/><path id="k5mni" d="M234.183 64.969h-1.524v-6.324H230.9V57.37h5.042v1.275h-1.757v6.324z"/><path id="k5mnj" d="M237.49 57.371v7.598h1.526v-2.813H240c.903 0 1.545-.252 1.98-.672.598-.583.646-1.402.646-1.698 0-.546-.164-1.288-.798-1.837-.573-.487-1.185-.579-2.063-.579h-2.276zm1.526 1.276h.525c.36 0 .757.024 1.073.24.22.159.43.445.43.865 0 .332-.139.672-.418.89-.328.238-.7.238-.994.238h-.616v-2.233z"/><path id="k5mnk" d="M249.16 64.968h1.643l-3.294-7.758h-1.15l-3.389 7.758h1.654l.691-1.595h3.154zm-3.362-2.804l1.123-2.731 1.1 2.732z"/><path id="k5mnl" d="M254.27 60.958l-2.337-3.588h1.831l1.371 2.357 1.445-2.357h1.828l-2.407 3.588 2.675 4.011h-1.828l-1.714-2.78-1.806 2.78H251.5z"/><path id="k5mnm" d="M264.19 57.2c-2.46 0-4.17 1.665-4.17 3.978s1.71 3.965 4.17 3.965c2.466 0 4.175-1.652 4.175-3.965 0-2.313-1.71-3.978-4.175-3.978zm0 6.597c-1.524 0-2.602-1.083-2.602-2.619 0-1.539 1.08-2.632 2.602-2.632 1.527 0 2.606 1.093 2.606 2.632.002 1.538-1.079 2.619-2.606 2.619z"/><path id="k5mnn" d="M271.88 63.761h.66c.28 0 .702-.01 1.042-.205.376-.217.48-.582.48-.877a.907.907 0 0 0-.575-.865c-.326-.15-.716-.15-1.043-.15h-.564zm-1.52-6.39h1.932c.436 0 1.28 0 1.91.479.456.34.727.931.727 1.572 0 .977-.668 1.379-.88 1.492.516.078.823.294 1.021.477.47.432.562 1.026.562 1.424 0 .444-.127 1.07-.666 1.537-.589.503-1.302.615-1.981.615h-2.625zm1.52 1.208v1.947h.436c.234 0 1.183-.024 1.183-.993 0-.695-.55-.954-1.173-.954z"/><path id="k5mno" d="M281.423 57.2c-2.46 0-4.173 1.665-4.173 3.978s1.714 3.965 4.173 3.965c2.463 0 4.175-1.652 4.175-3.965 0-2.313-1.712-3.978-4.175-3.978zm0 6.597c-1.523 0-2.603-1.083-2.603-2.619 0-1.539 1.082-2.632 2.603-2.632 1.522 0 2.601 1.093 2.601 2.632 0 1.538-1.078 2.619-2.6 2.619z"/><path id="k5mnp" d="M289.979 54.94c.244.636.9.657 1.05.657.153 0 .808-.023 1.054-.657l1.05.407c-.303.772-1.028 1.27-2.104 1.27-1.074 0-1.796-.498-2.102-1.27zm-.866 2.43v5.104l4.316-5.277h1.052v7.769h-1.522v-5.124l-4.315 5.272h-1.054v-7.743h1.523z"/><path id="k5mnq" d="M300.926 57.37v3.301c0 1.049-.13 1.619-.284 1.997-.235.568-.678 1.048-1.242 1.023v2.986h1.406v-1.71h4.807v1.71h1.408v-2.986h-.821V57.37h-5.274zm1.475 1.275h2.276v5.036h-3.156c.22-.202.445-.476.61-.897.142-.363.27-.946.27-2.117z"/><path id="k5mnr" d="M312.413 57.2c-2.462 0-4.173 1.665-4.173 3.978s1.712 3.965 4.173 3.965c2.461 0 4.172-1.652 4.172-3.965 0-2.313-1.71-3.978-4.172-3.978zm.005 6.597c-1.528 0-2.609-1.083-2.609-2.619 0-1.539 1.082-2.632 2.61-2.632 1.53 0 2.609 1.093 2.609 2.632.001 1.538-1.078 2.619-2.61 2.619z"/><path id="k5mns" d="M318.18 64.966l1.454-7.736h1.057l2.122 4.968 2.215-4.968h1.057l1.314 7.736h-1.55l-.704-4.682-2.144 4.784h-.424l-2.052-4.784-.794 4.682z"/></defs><g><g transform="translate(-150 -19)"><g><use fill="#006fba" xlink:href="#k5mna"/></g><g><use fill="#006fba" xlink:href="#k5mnb"/></g><g><use fill="#006fba" xlink:href="#k5mnc"/></g><g><use fill="#52b9e9" xlink:href="#k5mnd"/></g><g><use fill="#52b9e9" xlink:href="#k5mne"/></g><g><g><use fill="#006fba" xlink:href="#k5mnf"/></g><g><use fill="#006fba" xlink:href="#k5mng"/></g></g><g><use fill="#006fba" xlink:href="#k5mnh"/></g><g><use fill="#006fba" xlink:href="#k5mni"/></g><g><use fill="#006fba" xlink:href="#k5mnj"/></g><g><use fill="#006fba" xlink:href="#k5mnk"/></g><g><use fill="#006fba" xlink:href="#k5mnl"/></g><g><use fill="#006fba" xlink:href="#k5mnm"/></g><g><use fill="#006fba" xlink:href="#k5mnn"/></g><g><use fill="#006fba" xlink:href="#k5mno"/></g><g><use fill="#006fba" xlink:href="#k5mnp"/></g><g><use fill="#006fba" xlink:href="#k5mnq"/></g><g><use fill="#006fba" xlink:href="#k5mnr"/></g><g><use fill="#006fba" xlink:href="#k5mns"/></g></g></g></svg>